<svg width="512" height="512" viewBox="0 0 512 512" fill="none" xmlns="http://www.w3.org/2000/svg">
  <rect width="512" height="512" rx="28" fill="#2C2B93"/>
  <circle cx="256" cy="256" r="224" fill="#FFD90A"/>
  <path
    d="M277 8L187 359C232 284 287 225 335 193C385 160 425 156 436 184C444 205 440 238 430 279L392 427C388 444 395 457 408 461C426 466 441 455 451 429L475 438C454 491 414 514 370 509C310 501 286 457 299 397L337 219C305 222 243 286 191 482L155 473L254 6L277 8Z"
    fill="#2C2B93"
  />
  <path
    d="M106 438L168 58C170 49 161 42 153 46C78 82 28 163 28 250C28 323 57 389 106 438Z"
    fill="#2C2B93"
  />
</svg>
